<mxfile host="app.diagrams.net" modified="2024-01-03T15:00:33.448Z" agent="Mozilla/5.0 (X11; Linux x86_64) AppleWebKit/537.36 (KHTML, like Gecko) Chrome/120.0.0.0 Safari/537.36 OPR/106.0.0.0" etag="O0RET4CS4Y3pRcVOIRjs" version="22.1.16" type="device">
  <diagram name="Page-1" id="xXK3ONeykgokbwVeCKCR">
    <mxGraphModel dx="1310" dy="762" grid="1" gridSize="10" guides="1" tooltips="1" connect="1" arrows="1" fold="1" page="1" pageScale="1" pageWidth="850" pageHeight="1100" math="0" shadow="0">
      <root>
        <mxCell id="0" />
        <mxCell id="1" parent="0" />
        <mxCell id="ChLg-xKOIRHRbh31sRrN-1" value="AlphaZero" style="rounded=0;whiteSpace=wrap;html=1;labelBackgroundColor=none;" parent="1" vertex="1">
          <mxGeometry x="40" y="410" width="160" height="80" as="geometry" />
        </mxCell>
        <mxCell id="ChLg-xKOIRHRbh31sRrN-9" value="Gamer" style="ellipse;whiteSpace=wrap;html=1;labelBackgroundColor=none;" parent="1" vertex="1">
          <mxGeometry x="700" y="410" width="60" height="40" as="geometry" />
        </mxCell>
        <mxCell id="ChLg-xKOIRHRbh31sRrN-10" value="Gamer" style="ellipse;whiteSpace=wrap;html=1;labelBackgroundColor=none;" parent="1" vertex="1">
          <mxGeometry x="540" y="490" width="60" height="40" as="geometry" />
        </mxCell>
        <mxCell id="ChLg-xKOIRHRbh31sRrN-11" value="Gamer" style="ellipse;whiteSpace=wrap;html=1;labelBackgroundColor=none;" parent="1" vertex="1">
          <mxGeometry x="620" y="450" width="60" height="40" as="geometry" />
        </mxCell>
        <mxCell id="ChLg-xKOIRHRbh31sRrN-12" value="Gamer" style="ellipse;whiteSpace=wrap;html=1;labelBackgroundColor=none;" parent="1" vertex="1">
          <mxGeometry x="780" y="370" width="60" height="40" as="geometry" />
        </mxCell>
        <mxCell id="ChLg-xKOIRHRbh31sRrN-13" value="Replay Buffer" style="rounded=1;whiteSpace=wrap;html=1;labelBackgroundColor=none;" parent="1" vertex="1">
          <mxGeometry x="410" y="560" width="120" height="60" as="geometry" />
        </mxCell>
        <mxCell id="ChLg-xKOIRHRbh31sRrN-14" value="" style="endArrow=classic;html=1;rounded=0;exitX=0.5;exitY=1;exitDx=0;exitDy=0;labelBackgroundColor=none;fontColor=default;entryX=0.992;entryY=0.367;entryDx=0;entryDy=0;entryPerimeter=0;" parent="1" source="ChLg-xKOIRHRbh31sRrN-11" target="ChLg-xKOIRHRbh31sRrN-13" edge="1">
          <mxGeometry width="50" height="50" relative="1" as="geometry">
            <mxPoint x="330" y="760" as="sourcePoint" />
            <mxPoint x="380" y="710" as="targetPoint" />
            <Array as="points">
              <mxPoint x="650" y="582" />
            </Array>
          </mxGeometry>
        </mxCell>
        <mxCell id="ChLg-xKOIRHRbh31sRrN-15" value="" style="endArrow=classic;html=1;rounded=0;exitX=0.5;exitY=1;exitDx=0;exitDy=0;entryX=1;entryY=0.883;entryDx=0;entryDy=0;labelBackgroundColor=none;fontColor=default;entryPerimeter=0;" parent="1" source="ChLg-xKOIRHRbh31sRrN-12" target="ChLg-xKOIRHRbh31sRrN-13" edge="1">
          <mxGeometry width="50" height="50" relative="1" as="geometry">
            <mxPoint x="513" y="670" as="sourcePoint" />
            <mxPoint x="440" y="867" as="targetPoint" />
            <Array as="points">
              <mxPoint x="810" y="610" />
            </Array>
          </mxGeometry>
        </mxCell>
        <mxCell id="ChLg-xKOIRHRbh31sRrN-16" value="" style="endArrow=classic;html=1;rounded=0;exitX=0.5;exitY=1;exitDx=0;exitDy=0;entryX=1;entryY=0.617;entryDx=0;entryDy=0;labelBackgroundColor=none;fontColor=default;entryPerimeter=0;" parent="1" source="ChLg-xKOIRHRbh31sRrN-9" target="ChLg-xKOIRHRbh31sRrN-13" edge="1">
          <mxGeometry width="50" height="50" relative="1" as="geometry">
            <mxPoint x="513" y="530" as="sourcePoint" />
            <mxPoint x="440" y="727" as="targetPoint" />
            <Array as="points">
              <mxPoint x="730" y="597" />
            </Array>
          </mxGeometry>
        </mxCell>
        <mxCell id="ChLg-xKOIRHRbh31sRrN-17" value="" style="endArrow=classic;html=1;rounded=0;exitX=0.5;exitY=1;exitDx=0;exitDy=0;labelBackgroundColor=none;fontColor=default;" parent="1" source="ChLg-xKOIRHRbh31sRrN-10" edge="1">
          <mxGeometry width="50" height="50" relative="1" as="geometry">
            <mxPoint x="380" y="480" as="sourcePoint" />
            <mxPoint x="530" y="569" as="targetPoint" />
            <Array as="points">
              <mxPoint x="570" y="569" />
            </Array>
          </mxGeometry>
        </mxCell>
        <mxCell id="ChLg-xKOIRHRbh31sRrN-19" value="" style="endArrow=classic;html=1;rounded=0;exitX=0.75;exitY=0;exitDx=0;exitDy=0;entryX=0;entryY=0.5;entryDx=0;entryDy=0;dashed=1;dashPattern=8 8;labelBackgroundColor=none;fontColor=default;" parent="1" source="ChLg-xKOIRHRbh31sRrN-1" target="ChLg-xKOIRHRbh31sRrN-12" edge="1">
          <mxGeometry width="50" height="50" relative="1" as="geometry">
            <mxPoint x="130" y="420" as="sourcePoint" />
            <mxPoint x="190" y="460" as="targetPoint" />
            <Array as="points">
              <mxPoint x="160" y="390" />
            </Array>
          </mxGeometry>
        </mxCell>
        <mxCell id="ChLg-xKOIRHRbh31sRrN-20" value="" style="endArrow=classic;html=1;rounded=0;exitX=1;exitY=0.25;exitDx=0;exitDy=0;dashed=1;dashPattern=8 8;labelBackgroundColor=none;fontColor=default;entryX=0;entryY=0.5;entryDx=0;entryDy=0;" parent="1" source="ChLg-xKOIRHRbh31sRrN-1" target="ChLg-xKOIRHRbh31sRrN-9" edge="1">
          <mxGeometry width="50" height="50" relative="1" as="geometry">
            <mxPoint x="210" y="440" as="sourcePoint" />
            <mxPoint x="470" y="410" as="targetPoint" />
          </mxGeometry>
        </mxCell>
        <mxCell id="ChLg-xKOIRHRbh31sRrN-21" value="" style="endArrow=classic;html=1;rounded=0;exitX=1;exitY=0.75;exitDx=0;exitDy=0;entryX=0;entryY=0.5;entryDx=0;entryDy=0;dashed=1;dashPattern=8 8;labelBackgroundColor=none;fontColor=default;" parent="1" source="ChLg-xKOIRHRbh31sRrN-1" target="ChLg-xKOIRHRbh31sRrN-11" edge="1">
          <mxGeometry width="50" height="50" relative="1" as="geometry">
            <mxPoint x="210" y="470" as="sourcePoint" />
            <mxPoint x="390" y="450" as="targetPoint" />
          </mxGeometry>
        </mxCell>
        <mxCell id="ChLg-xKOIRHRbh31sRrN-22" value="" style="endArrow=classic;html=1;rounded=0;exitX=0.75;exitY=1;exitDx=0;exitDy=0;entryX=0;entryY=0.5;entryDx=0;entryDy=0;dashed=1;dashPattern=8 8;labelBackgroundColor=none;fontColor=default;" parent="1" source="ChLg-xKOIRHRbh31sRrN-1" target="ChLg-xKOIRHRbh31sRrN-10" edge="1">
          <mxGeometry width="50" height="50" relative="1" as="geometry">
            <mxPoint x="210" y="480" as="sourcePoint" />
            <mxPoint x="640" y="430" as="targetPoint" />
            <Array as="points">
              <mxPoint x="160" y="510" />
            </Array>
          </mxGeometry>
        </mxCell>
        <mxCell id="ChLg-xKOIRHRbh31sRrN-24" value="" style="endArrow=classic;html=1;rounded=0;exitX=0;exitY=0.5;exitDx=0;exitDy=0;entryX=0.5;entryY=1;entryDx=0;entryDy=0;labelBackgroundColor=none;fontColor=default;" parent="1" source="ChLg-xKOIRHRbh31sRrN-13" target="ChLg-xKOIRHRbh31sRrN-1" edge="1">
          <mxGeometry width="50" height="50" relative="1" as="geometry">
            <mxPoint x="310" y="590" as="sourcePoint" />
            <mxPoint x="160" y="590" as="targetPoint" />
            <Array as="points">
              <mxPoint x="120" y="590" />
            </Array>
          </mxGeometry>
        </mxCell>
        <mxCell id="ChLg-xKOIRHRbh31sRrN-28" value="Launches" style="text;html=1;align=center;verticalAlign=middle;resizable=0;points=[];autosize=1;strokeColor=none;fillColor=none;" parent="1" vertex="1">
          <mxGeometry x="370" y="360" width="80" height="30" as="geometry" />
        </mxCell>
        <mxCell id="ChLg-xKOIRHRbh31sRrN-29" value="Creates Games" style="text;html=1;align=center;verticalAlign=middle;resizable=0;points=[];autosize=1;strokeColor=none;fillColor=none;" parent="1" vertex="1">
          <mxGeometry x="620" y="608" width="110" height="30" as="geometry" />
        </mxCell>
        <mxCell id="ChLg-xKOIRHRbh31sRrN-30" value="Provides games" style="text;html=1;align=center;verticalAlign=middle;resizable=0;points=[];autosize=1;strokeColor=none;fillColor=none;" parent="1" vertex="1">
          <mxGeometry x="185" y="588" width="110" height="30" as="geometry" />
        </mxCell>
        <mxCell id="ChLg-xKOIRHRbh31sRrN-33" value="Test Manager" style="rounded=0;whiteSpace=wrap;html=1;" parent="1" vertex="1">
          <mxGeometry x="160" y="90" width="120" height="60" as="geometry" />
        </mxCell>
        <mxCell id="ChLg-xKOIRHRbh31sRrN-34" value="Network Storage" style="rounded=1;whiteSpace=wrap;html=1;" parent="1" vertex="1">
          <mxGeometry x="290" y="210" width="120" height="60" as="geometry" />
        </mxCell>
        <mxCell id="ChLg-xKOIRHRbh31sRrN-35" value="" style="endArrow=classic;html=1;rounded=0;entryX=0;entryY=0.5;entryDx=0;entryDy=0;" parent="1" target="ChLg-xKOIRHRbh31sRrN-34" edge="1">
          <mxGeometry width="50" height="50" relative="1" as="geometry">
            <mxPoint x="140" y="410" as="sourcePoint" />
            <mxPoint x="110" y="240" as="targetPoint" />
            <Array as="points">
              <mxPoint x="140" y="240" />
            </Array>
          </mxGeometry>
        </mxCell>
        <mxCell id="ChLg-xKOIRHRbh31sRrN-36" value="" style="endArrow=classic;html=1;rounded=0;entryX=0;entryY=0.5;entryDx=0;entryDy=0;dashed=1;dashPattern=8 8;" parent="1" target="ChLg-xKOIRHRbh31sRrN-33" edge="1">
          <mxGeometry width="50" height="50" relative="1" as="geometry">
            <mxPoint x="100" y="410" as="sourcePoint" />
            <mxPoint x="340" y="350" as="targetPoint" />
            <Array as="points">
              <mxPoint x="100" y="120" />
            </Array>
          </mxGeometry>
        </mxCell>
        <mxCell id="ChLg-xKOIRHRbh31sRrN-37" value="&lt;font style=&quot;font-size: 11px;&quot;&gt;Launches&lt;/font&gt;" style="text;html=1;strokeColor=none;fillColor=none;align=center;verticalAlign=middle;whiteSpace=wrap;rounded=0;" parent="1" vertex="1">
          <mxGeometry x="100" y="90" width="60" height="30" as="geometry" />
        </mxCell>
        <mxCell id="ChLg-xKOIRHRbh31sRrN-38" value="Stores trained network" style="text;html=1;align=center;verticalAlign=middle;resizable=0;points=[];autosize=1;strokeColor=none;fillColor=none;rotation=-90;" parent="1" vertex="1">
          <mxGeometry x="60" y="310" width="140" height="30" as="geometry" />
        </mxCell>
        <mxCell id="ChLg-xKOIRHRbh31sRrN-40" value="Tester" style="ellipse;whiteSpace=wrap;html=1;labelBackgroundColor=none;" parent="1" vertex="1">
          <mxGeometry x="700" y="100" width="60" height="40" as="geometry" />
        </mxCell>
        <mxCell id="ChLg-xKOIRHRbh31sRrN-41" value="Tester" style="ellipse;whiteSpace=wrap;html=1;labelBackgroundColor=none;" parent="1" vertex="1">
          <mxGeometry x="780" y="60" width="60" height="40" as="geometry" />
        </mxCell>
        <mxCell id="ChLg-xKOIRHRbh31sRrN-43" value="Tester" style="ellipse;whiteSpace=wrap;html=1;labelBackgroundColor=none;" parent="1" vertex="1">
          <mxGeometry x="620" y="140" width="60" height="40" as="geometry" />
        </mxCell>
        <mxCell id="ChLg-xKOIRHRbh31sRrN-45" value="" style="endArrow=classic;html=1;rounded=0;dashed=1;dashPattern=8 8;labelBackgroundColor=none;fontColor=default;" parent="1" edge="1">
          <mxGeometry width="50" height="50" relative="1" as="geometry">
            <mxPoint x="220" y="90" as="sourcePoint" />
            <mxPoint x="780" y="80" as="targetPoint" />
            <Array as="points">
              <mxPoint x="220" y="80" />
            </Array>
          </mxGeometry>
        </mxCell>
        <mxCell id="ChLg-xKOIRHRbh31sRrN-47" value="" style="endArrow=classic;html=1;rounded=0;exitX=1;exitY=0.5;exitDx=0;exitDy=0;entryX=0;entryY=0.5;entryDx=0;entryDy=0;dashed=1;dashPattern=8 8;" parent="1" source="ChLg-xKOIRHRbh31sRrN-33" target="ChLg-xKOIRHRbh31sRrN-40" edge="1">
          <mxGeometry width="50" height="50" relative="1" as="geometry">
            <mxPoint x="510" y="190" as="sourcePoint" />
            <mxPoint x="560" y="140" as="targetPoint" />
          </mxGeometry>
        </mxCell>
        <mxCell id="ChLg-xKOIRHRbh31sRrN-48" value="" style="endArrow=classic;html=1;rounded=0;entryX=0;entryY=0.5;entryDx=0;entryDy=0;exitX=0.5;exitY=1;exitDx=0;exitDy=0;dashed=1;dashPattern=8 8;" parent="1" source="ChLg-xKOIRHRbh31sRrN-33" target="ChLg-xKOIRHRbh31sRrN-43" edge="1">
          <mxGeometry width="50" height="50" relative="1" as="geometry">
            <mxPoint x="490" y="330" as="sourcePoint" />
            <mxPoint x="540" y="280" as="targetPoint" />
            <Array as="points">
              <mxPoint x="220" y="160" />
            </Array>
          </mxGeometry>
        </mxCell>
        <mxCell id="ChLg-xKOIRHRbh31sRrN-50" value="Explorer" style="rounded=1;whiteSpace=wrap;html=1;" parent="1" vertex="1">
          <mxGeometry x="1190" y="210" width="120" height="60" as="geometry" />
        </mxCell>
        <mxCell id="ChLg-xKOIRHRbh31sRrN-51" value="" style="endArrow=classic;html=1;rounded=0;exitX=1;exitY=0.5;exitDx=0;exitDy=0;entryX=0;entryY=0.5;entryDx=0;entryDy=0;" parent="1" source="ChLg-xKOIRHRbh31sRrN-12" target="ChLg-xKOIRHRbh31sRrN-50" edge="1">
          <mxGeometry width="50" height="50" relative="1" as="geometry">
            <mxPoint x="880" y="240" as="sourcePoint" />
            <mxPoint x="890" y="210" as="targetPoint" />
            <Array as="points">
              <mxPoint x="1040" y="390" />
              <mxPoint x="1040" y="240" />
            </Array>
          </mxGeometry>
        </mxCell>
        <mxCell id="ChLg-xKOIRHRbh31sRrN-52" value="" style="endArrow=classic;html=1;rounded=0;entryX=0;entryY=0.5;entryDx=0;entryDy=0;exitX=1;exitY=0.5;exitDx=0;exitDy=0;" parent="1" source="ChLg-xKOIRHRbh31sRrN-41" target="ChLg-xKOIRHRbh31sRrN-50" edge="1">
          <mxGeometry width="50" height="50" relative="1" as="geometry">
            <mxPoint x="1060" y="160" as="sourcePoint" />
            <mxPoint x="1010" y="210" as="targetPoint" />
            <Array as="points">
              <mxPoint x="1040" y="80" />
              <mxPoint x="1040" y="240" />
            </Array>
          </mxGeometry>
        </mxCell>
        <mxCell id="ChLg-xKOIRHRbh31sRrN-53" value="Uses MCTS" style="text;html=1;align=center;verticalAlign=middle;resizable=0;points=[];autosize=1;strokeColor=none;fillColor=none;" parent="1" vertex="1">
          <mxGeometry x="1070" y="210" width="90" height="30" as="geometry" />
        </mxCell>
        <mxCell id="ChLg-xKOIRHRbh31sRrN-54" value="" style="endArrow=classic;html=1;rounded=0;entryX=0.5;entryY=1;entryDx=0;entryDy=0;exitX=1;exitY=0.5;exitDx=0;exitDy=0;" parent="1" source="ChLg-xKOIRHRbh31sRrN-34" target="ChLg-xKOIRHRbh31sRrN-41" edge="1">
          <mxGeometry width="50" height="50" relative="1" as="geometry">
            <mxPoint x="560" y="240" as="sourcePoint" />
            <mxPoint x="610" y="190" as="targetPoint" />
            <Array as="points">
              <mxPoint x="810" y="240" />
            </Array>
          </mxGeometry>
        </mxCell>
        <mxCell id="ChLg-xKOIRHRbh31sRrN-55" value="" style="endArrow=classic;html=1;rounded=0;exitX=1;exitY=0.5;exitDx=0;exitDy=0;entryX=0.5;entryY=0;entryDx=0;entryDy=0;" parent="1" source="ChLg-xKOIRHRbh31sRrN-34" target="ChLg-xKOIRHRbh31sRrN-12" edge="1">
          <mxGeometry width="50" height="50" relative="1" as="geometry">
            <mxPoint x="740" y="310" as="sourcePoint" />
            <mxPoint x="790" y="260" as="targetPoint" />
            <Array as="points">
              <mxPoint x="810" y="240" />
            </Array>
          </mxGeometry>
        </mxCell>
        <mxCell id="ChLg-xKOIRHRbh31sRrN-56" value="Provides network" style="text;html=1;align=center;verticalAlign=middle;resizable=0;points=[];autosize=1;strokeColor=none;fillColor=none;" parent="1" vertex="1">
          <mxGeometry x="540" y="210" width="120" height="30" as="geometry" />
        </mxCell>
      </root>
    </mxGraphModel>
  </diagram>
</mxfile>
